<svg width="28" height="23" viewBox="0 0 28 23" fill="none" xmlns="http://www.w3.org/2000/svg">
<path d="M26.1993 13.7475V6.26942L26.5098 6.17628C27.7031 5.81812 27.9536 5.21177 27.9536 4.76615C27.9536 4.32053 27.703 3.71417 26.5097 3.35618L16.2978 0.292585C15.6689 0.103898 14.8446 0 13.9769 0C13.1092 0 12.285 0.103898 11.6558 0.292585L1.44403 3.35618C0.250545 3.71417 0 4.32053 0 4.7662C0 5.21182 0.250491 5.81823 1.44398 6.17633L5.2632 7.3221V13.4958C5.2632 14.2624 5.7615 15.3423 8.13543 16.1336C9.70782 16.6577 11.7823 16.9464 13.9768 16.9464C16.1712 16.9464 18.2457 16.6577 19.8181 16.1336C22.1921 15.3422 22.6904 14.2624 22.6904 13.4958V7.32216L24.5614 6.76085V13.7475C23.5429 14.0905 22.807 15.0538 22.807 16.1865V19.6952C22.807 21.1142 23.9613 22.2686 25.3803 22.2686C26.7992 22.2686 27.9536 21.1142 27.9536 19.6952V16.1865C27.9537 15.0538 27.2178 14.0904 26.1993 13.7475ZM12.1265 1.86143C12.6001 1.71931 13.2745 1.63785 13.9769 1.63785C14.6792 1.63785 15.3536 1.71931 15.8272 1.86137L25.5098 4.7662L21.6321 5.92955C21.6299 5.93026 21.6277 5.93086 21.6255 5.93157L15.8273 7.67109C15.3537 7.81315 14.6793 7.89461 13.977 7.89461C13.2746 7.89461 12.6002 7.81315 12.1266 7.67109L6.32838 5.93157C6.32615 5.93086 6.32396 5.93026 6.32172 5.92955L2.44403 4.7662L12.1265 1.86143ZM21.0526 11.3451C21.0526 13.6013 20.7552 14.0947 19.3003 14.5796C17.8905 15.0496 15.9999 15.3084 13.9769 15.3084C11.9538 15.3084 10.0632 15.0496 8.65345 14.5796C7.19855 14.0947 6.9011 13.6013 6.9011 13.4957V7.81342L11.6559 9.23987C12.2849 9.42856 13.1092 9.53246 13.9769 9.53246C14.8446 9.53246 15.6688 9.42856 16.2979 9.23987L21.0526 7.81342V11.3451ZM26.3158 19.6952C26.3158 20.211 25.8961 20.6306 25.3804 20.6306C24.8646 20.6306 24.445 20.211 24.445 19.6952V16.1865C24.445 15.6706 24.8645 15.2509 25.3804 15.2509C25.8962 15.2509 26.3158 15.6706 26.3158 16.1865V19.6952Z" fill="white"/>
</svg>
