<svg width="23" height="27" viewBox="0 0 23 27" fill="none" xmlns="http://www.w3.org/2000/svg">
<path d="M11.4445 0C7.65816 0 4.57776 3.0804 4.57776 6.8667C4.57776 10.653 7.65816 13.7334 11.4445 13.7334C15.2308 13.7334 18.3112 10.653 18.3112 6.8667C18.3112 3.0804 15.2308 0 11.4445 0ZM11.4445 12.2075C8.49956 12.2075 6.10369 9.81159 6.10369 6.8667C6.10369 3.9218 8.49956 1.52593 11.4445 1.52593C14.3894 1.52593 16.7852 3.9218 16.7852 6.8667C16.7852 9.81159 14.3894 12.2075 11.4445 12.2075Z" fill="white"/>
<path d="M19.988 18.2194C18.108 16.3105 15.6158 15.2593 12.9704 15.2593H9.91856C7.2732 15.2593 4.78095 16.3105 2.901 18.2194C1.03026 20.1189 0 22.6262 0 25.2796C0 25.701 0.341605 26.0426 0.762966 26.0426H22.126C22.5474 26.0426 22.889 25.701 22.889 25.2796C22.889 22.6262 21.8587 20.1189 19.988 18.2194ZM1.5595 24.5166C1.94175 20.1888 5.54478 16.7853 9.91856 16.7853H12.9704C17.3442 16.7853 20.9472 20.1888 21.3295 24.5166H1.5595Z" fill="white"/>
</svg>
