<svg width="176" height="191" viewBox="0 0 176 191" fill="none" xmlns="http://www.w3.org/2000/svg">
<g clip-path="url(#clip0)">
<path d="M94.3673 20.033C100.476 36.3445 120.467 33.8899 134.032 30.4059C137.284 29.5349 140.616 28.5847 143.551 26.9219C146.487 25.259 148.946 22.5668 149.898 19.3204C150.929 15.678 149.739 11.6397 147.677 8.47246C145.773 5.54272 142.996 2.45463 140.061 0.554261C138.792 3.80072 134.27 4.03827 131.176 4.03827C126.813 4.03827 122.846 2.37545 118.801 1.18772C114.676 -1.22637e-05 110.233 -0.237558 106.108 0.870989C97.7785 2.85054 91.1148 11.323 94.3673 20.033Z" fill="#0C0B0B"/>
<path d="M106.822 129.225C106.584 129.225 106.505 129.225 106.346 129.304L106.822 129.225Z" fill="#0C0B0B"/>
<path d="M106.822 129.225C106.584 129.225 106.505 129.225 106.346 129.304L106.822 129.225Z" fill="#0C0B0B"/>
<path d="M89.2109 49.8055V34.5233C89.2109 21.5375 101.348 10.9271 116.183 10.9271C123.56 10.9271 130.303 13.5401 135.222 17.816C140.14 22.0918 143.155 27.9512 143.155 34.4442V49.7263" stroke="#0C0B0B" stroke-width="2" stroke-miterlimit="10"/>
<path d="M143.155 66.3545V84.0121C143.155 96.9979 131.017 107.608 116.183 107.608C101.348 107.608 89.2109 96.9979 89.2109 84.0121V66.3545" stroke="#0C0B0B" stroke-width="2" stroke-miterlimit="10"/>
<path d="M100.158 71.818C107.738 71.818 113.882 65.685 113.882 58.1196C113.882 50.5541 107.738 44.4211 100.158 44.4211C92.5789 44.4211 86.4344 50.5541 86.4344 58.1196C86.4344 65.685 92.5789 71.818 100.158 71.818Z" stroke="#0C0B0B" stroke-width="2" stroke-miterlimit="10"/>
<path d="M132.128 71.818C139.708 71.818 145.852 65.685 145.852 58.1196C145.852 50.5541 139.708 44.4211 132.128 44.4211C124.548 44.4211 118.404 50.5541 118.404 58.1196C118.404 65.685 124.548 71.818 132.128 71.818Z" stroke="#0C0B0B" stroke-width="2" stroke-miterlimit="10"/>
<path d="M113.803 57.7236H118.563" stroke="#0C0B0B" stroke-width="4" stroke-miterlimit="10"/>
<path d="M127.21 105.47H127.289V130.254" stroke="#0C0B0B" stroke-width="2" stroke-miterlimit="10"/>
<path d="M107.457 129.938V106.104" stroke="#0C0B0B" stroke-width="2" stroke-miterlimit="10"/>
<path d="M100.158 61.2868C101.911 61.2868 103.332 59.8688 103.332 58.1195C103.332 56.3703 101.911 54.9523 100.158 54.9523C98.4059 54.9523 96.9852 56.3703 96.9852 58.1195C96.9852 59.8688 98.4059 61.2868 100.158 61.2868Z" fill="#0C0B0B"/>
<path d="M132.128 61.2868C133.881 61.2868 135.301 59.8688 135.301 58.1195C135.301 56.3703 133.881 54.9523 132.128 54.9523C130.376 54.9523 128.955 56.3703 128.955 58.1195C128.955 59.8688 130.376 61.2868 132.128 61.2868Z" fill="#0C0B0B"/>
<path d="M87.3864 63.2664H85.7998C84.0546 63.2664 82.468 63.979 81.2781 65.0876C80.1674 66.2753 79.4535 67.8589 79.4535 69.6009C79.4535 73.0849 82.3093 75.9355 85.7998 75.9355H88.973" stroke="#0C0B0B" stroke-width="2" stroke-miterlimit="10"/>
<path d="M144.9 63.2664H146.487C149.977 63.2664 152.833 66.1169 152.833 69.6009C152.833 71.3429 152.119 72.9266 150.929 74.1143C149.818 75.2229 148.232 75.9355 146.487 75.9355H143.313" stroke="#0C0B0B" stroke-width="2" stroke-miterlimit="10"/>
<path d="M89.0523 67.7006V71.5013H86.5138C85.4825 71.5013 84.6099 70.6303 84.6099 69.6009C84.6099 69.0467 84.8478 68.5716 85.1652 68.2548C85.4825 67.9381 85.9585 67.7006 86.5138 67.7006H89.0523Z" fill="#0C0B0B"/>
<path d="M143.313 71.5013V67.7006H145.852C146.883 67.7006 147.756 68.5716 147.756 69.6009C147.756 70.1552 147.518 70.6303 147.2 70.947C146.883 71.2637 146.407 71.5013 145.852 71.5013H143.313Z" fill="#0C0B0B"/>
<path d="M116.183 71.1846C116.183 71.1846 112.216 77.5191 118.563 75.9355" stroke="#0C0B0B" stroke-width="2" stroke-miterlimit="10" stroke-linecap="round"/>
<path d="M109.043 89.4756C109.043 89.4756 115.39 97.3146 124.116 89.4756" stroke="#0C0B0B" stroke-width="2" stroke-miterlimit="10" stroke-linecap="round"/>
<path d="M93.9707 41.8872C93.9707 41.8872 98.3338 37.5322 105.87 41.0954" stroke="#0C0B0B" stroke-width="3" stroke-miterlimit="10" stroke-linecap="round"/>
<path d="M138.395 41.8872C138.395 41.8872 134.032 37.5322 126.496 41.0954" stroke="#0C0B0B" stroke-width="3" stroke-miterlimit="10" stroke-linecap="round"/>
<path d="M89.0522 32.8605C89.0522 32.8605 78.1048 24.388 82.8646 14.0944C87.6243 3.80073 102.697 9.34347 102.697 9.34347C102.697 9.34347 108.726 34.9984 89.0522 32.8605Z" fill="#0C0B0B"/>
<path d="M34.6325 96.1275C33.6806 93.0394 32.332 91.535 31.618 87.0216C30.1108 77.9949 30.6661 69.364 26.9376 69.6808C25.4303 69.8391 24.9544 71.4228 25.0337 72.2938L26.2236 86.5465C25.7477 88.2093 24.875 87.5759 24.875 87.5759C24.875 87.5759 21.7812 74.9068 21.3846 72.6105C20.9879 70.3934 19.8773 69.1265 18.37 69.2849C15.7522 69.5224 16.7835 72.6897 17.0215 73.8774L19.798 89.2387C20.036 90.7432 18.4494 90.2681 18.4494 90.2681L12.2617 74.9068C11.5477 73.244 10.1991 73.6399 10.1991 73.6399C7.73994 74.1941 8.69189 76.4112 8.69189 76.4112L14.0069 92.7227C14.0069 92.8019 14.0069 92.8811 14.0069 92.9603C14.0863 93.8313 12.9757 94.3064 12.4997 93.5145C10.8338 90.9807 7.58129 86.9424 4.8841 85.3588C3.5355 84.567 2.58355 84.7253 2.02825 85.1212C1.47295 85.5172 1.39362 86.2298 1.79026 86.7841L11.7064 101.116C14.0069 116.319 23.2884 118.14 23.2884 118.14L28.8415 139.836L37.0124 174.043L38.0437 178.398C38.9956 182.594 42.8034 185.603 47.0872 185.603H51.4503C54.5441 185.603 56.686 182.594 55.7341 179.744L35.9811 119.724L35.1085 114.498C37.0124 112.36 38.2816 107.846 38.9163 104.6C39.3129 102.858 39.4716 101.037 39.3129 99.2948C38.9956 94.9398 41.9308 87.1008 41.9308 87.1008C41.6928 85.5963 38.837 86.8632 38.837 86.8632C35.6638 87.9718 34.8705 93.0394 34.6325 95.8108C34.5532 96.9985 33.9979 98.0279 33.2046 98.8197C28.4448 103.491 28.0482 108.717 28.0482 108.717" stroke="#0C0B0B" stroke-width="2" stroke-miterlimit="10"/>
<path d="M21.3052 72.6891C20.9086 70.472 20.1946 68.8091 18.2907 69.3634C15.7522 70.076 16.7041 72.7682 16.9421 73.956" stroke="#0C0B0B" stroke-width="2" stroke-miterlimit="10"/>
<path d="M175.68 189.958V190.749H158.386L154.737 170.558V190.749H79.8501V179.268C79.8501 176.497 79.8501 173.725 79.9295 170.954C78.2635 172.3 76.439 173.408 74.2971 174.596L57.7173 185.682C57.638 185.761 57.5587 185.761 57.4793 185.84C56.7654 186.236 55.9721 186.474 55.0995 186.474L51.6516 186.604C51.6516 186.604 55.3374 185.207 56.2101 181.723L50.2604 161.927C58.7486 154.88 72.4725 134.53 98.8098 130.333C99.9204 130.096 101.11 129.858 102.38 129.7C103.57 129.542 104.759 129.383 106.108 129.304L106.981 129.225V129.383L106.505 129.462C106.663 129.462 106.743 129.462 106.901 129.383H106.981C107.139 129.383 107.298 129.383 107.457 129.304H107.536L108.329 129.225V132.234C108.329 132.63 108.488 133.105 108.885 133.501C110.075 134.847 112.772 135.876 116.024 136.114C116.579 136.193 117.135 136.193 117.69 136.193C117.769 136.193 117.849 136.193 117.849 136.193H117.928C121.101 136.114 124.036 135.243 125.544 133.976C126.02 133.58 126.496 133.026 126.496 132.234V129.462L127.289 129.621H127.448C127.686 129.621 127.844 129.7 128.082 129.7V129.462L129.113 129.621C158.227 133.184 175.68 155.751 175.68 189.958Z" fill="#0C0B0B"/>
<path d="M57.638 185.603L57.4 185.761C57.4794 185.761 57.5587 185.682 57.638 185.603Z" fill="#0C0B0B"/>
</g>
<defs>
<clipPath id="clip0">
<rect width="175" height="190.749" fill="white" transform="translate(0.679688)"/>
</clipPath>
</defs>
</svg>
